<?xml version="1.0" encoding="utf-8"?>
<!-- Generator: Adobe Illustrator 16.0.0, SVG Export Plug-In . SVG Version: 6.00 Build 0)  -->
<!DOCTYPE svg PUBLIC "-//W3C//DTD SVG 1.1//EN" "http://www.w3.org/Graphics/SVG/1.1/DTD/svg11.dtd">
<svg version="1.1" id="Layer_1" xmlns="http://www.w3.org/2000/svg" xmlns:xlink="http://www.w3.org/1999/xlink" x="0px" y="0px"
	 width="556px" height="266px" viewBox="0 0 556 266" enable-background="new 0 0 556 266" xml:space="preserve">
<g>
	<g>
		<defs>
			<rect id="SVGID_1_" x="-222" y="-367" width="1000" height="1000"/>
		</defs>
		<clipPath id="SVGID_2_">
			<use xlink:href="#SVGID_1_"  overflow="visible"/>
		</clipPath>
		<path clip-path="url(#SVGID_2_)" fill="#FFFFFF" d="M278.151,85.553L278.151,85.553c-6.347,0-12.267,3.134-15.834,8.383
			c-1.131,1.664-0.697,3.938,0.969,5.071c0.608,0.412,1.316,0.629,2.048,0.629c1.21,0,2.339-0.596,3.022-1.597
			c2.239-3.297,5.809-5.187,9.795-5.187s7.556,1.89,9.795,5.187c1.131,1.662,3.403,2.096,5.069,0.967
			c1.664-1.131,2.099-3.406,0.967-5.07C290.417,88.688,284.498,85.553,278.151,85.553"/>
	</g>
	<g>
		<defs>
			<rect id="SVGID_3_" x="-222" y="-367" width="1000" height="1000"/>
		</defs>
		<clipPath id="SVGID_4_">
			<use xlink:href="#SVGID_3_"  overflow="visible"/>
		</clipPath>
		<path clip-path="url(#SVGID_4_)" fill="#FFFFFF" d="M262.017,89.833c3.689-5.428,9.569-8.541,16.134-8.541
			c6.563,0,12.443,3.113,16.134,8.541c0.681,1.001,1.811,1.598,3.021,1.598c0.731,0,1.439-0.218,2.049-0.631
			c0.807-0.547,1.352-1.377,1.533-2.335s-0.019-1.929-0.565-2.735c-4.995-7.35-13.284-11.738-22.171-11.738
			c-8.888,0-17.177,4.388-22.173,11.738c-1.13,1.665-0.696,3.939,0.969,5.071C258.613,91.93,260.886,91.498,262.017,89.833"/>
	</g>
	<g>
		<defs>
			<rect id="SVGID_5_" x="-222" y="-367" width="1000" height="1000"/>
		</defs>
		<clipPath id="SVGID_6_">
			<use xlink:href="#SVGID_5_"  overflow="visible"/>
		</clipPath>
		<path clip-path="url(#SVGID_6_)" fill="#FFFFFF" d="M322.917,85.605L281.15,14.224c-0.651-1.116-1.858-1.808-3.15-1.808
			s-2.499,0.692-3.149,1.807l-41.767,71.383c-15.164,25.915-9.693,58.985,13.007,78.636l3.562,3.085
			c0.737,0.641,1.676,0.946,2.652,0.884c0.972-0.072,1.858-0.518,2.496-1.251c0.639-0.737,0.952-1.679,0.882-2.651
			c-0.07-0.973-0.514-1.86-1.251-2.498l-3.563-3.084c-20.044-17.351-24.875-46.553-11.487-69.435l38.618-66l38.615,65.999
			c13.389,22.881,8.56,52.083-11.486,69.434l-3.453,2.993l-20.025,15.524v-30.623l10.164-10.164c1.422-1.422,1.422-3.738,0-5.161
			c-1.379-1.381-3.785-1.378-5.162,0l-5.002,5.002v-17.844c4.072-1.513,6.842-5.426,6.842-9.826c0-5.785-4.706-10.491-10.491-10.491
			c-5.786,0-10.492,4.706-10.492,10.491c0,4.4,2.769,8.313,6.842,9.826v34.053l-6.861-6.86c-1.378-1.381-3.786-1.381-5.162,0
			c-1.424,1.422-1.424,3.736,0,5.16l12.023,12.022v21.86c0,1.402,0.782,2.658,2.047,3.279c0.499,0.243,1.053,0.37,1.602,0.37
			c0.805,0,1.6-0.271,2.236-0.766l25.947-20.112c0.029-0.023,0.061-0.047,0.079-0.064l3.646-3.154
			C332.609,144.592,338.08,111.521,322.917,85.605 M281.191,108.626c0,1.761-1.433,3.193-3.191,3.193
			c-1.761,0-3.192-1.432-3.192-3.193c0-1.759,1.432-3.19,3.192-3.19C279.76,105.437,281.191,106.868,281.191,108.626"/>
	</g>
	<g>
		<defs>
			<rect id="SVGID_7_" x="-222" y="-367" width="1000" height="1000"/>
		</defs>
		<clipPath id="SVGID_8_">
			<use xlink:href="#SVGID_7_"  overflow="visible"/>
		</clipPath>
		<polygon clip-path="url(#SVGID_8_)" fill="#FFFFFF" points="6.115,242.964 6.115,206.288 6.913,206.288 31.322,234.402 
			31.322,206.288 34.937,206.288 34.937,242.964 34.114,242.964 9.905,215.193 9.905,242.964 		"/>
	</g>
	<g>
		<defs>
			<rect id="SVGID_9_" x="-222" y="-367" width="1000" height="1000"/>
		</defs>
		<clipPath id="SVGID_10_">
			<use xlink:href="#SVGID_9_"  overflow="visible"/>
		</clipPath>
		<path clip-path="url(#SVGID_10_)" fill="#FFFFFF" d="M66.127,233.963l2.942,1.546c-0.965,1.896-2.08,3.425-3.344,4.589
			c-1.265,1.162-2.687,2.047-4.267,2.654c-1.581,0.605-3.37,0.91-5.366,0.91c-4.425,0-7.885-1.45-10.381-4.352
			c-2.495-2.899-3.743-6.18-3.743-9.836c0-3.439,1.056-6.508,3.169-9.199c2.678-3.424,6.263-5.137,10.756-5.137
			c4.624,0,8.317,1.754,11.079,5.262c1.963,2.477,2.961,5.567,2.995,9.273H45.558c0.066,3.15,1.073,5.733,3.02,7.749
			c1.947,2.015,4.352,3.021,7.215,3.021c1.381,0,2.724-0.239,4.031-0.719c1.306-0.479,2.417-1.119,3.332-1.912
			C64.072,237.018,65.062,235.734,66.127,233.963 M66.127,226.658c-0.466-1.861-1.144-3.35-2.035-4.463
			c-0.89-1.113-2.068-2.012-3.532-2.692c-1.465-0.683-3.004-1.022-4.618-1.022c-2.663,0-4.951,0.856-6.864,2.567
			c-1.399,1.247-2.456,3.117-3.171,5.61H66.127z"/>
	</g>
	<g>
		<defs>
			<rect id="SVGID_11_" x="-222" y="-367" width="1000" height="1000"/>
		</defs>
		<clipPath id="SVGID_12_">
			<use xlink:href="#SVGID_11_"  overflow="visible"/>
		</clipPath>
		<polygon clip-path="url(#SVGID_12_)" fill="#FFFFFF" points="72.809,215.838 76.398,215.838 84.713,235.534 93.369,215.838 
			94.001,215.838 102.714,235.534 111.189,215.838 114.819,215.838 103.036,242.964 102.388,242.964 93.714,223.542 85.045,242.964 
			84.396,242.964 		"/>
	</g>
	<g>
		<defs>
			<rect id="SVGID_13_" x="-222" y="-367" width="1000" height="1000"/>
		</defs>
		<clipPath id="SVGID_14_">
			<use xlink:href="#SVGID_13_"  overflow="visible"/>
		</clipPath>
		<polygon clip-path="url(#SVGID_14_)" fill="#FFFFFF" points="133.618,206.288 137.283,206.288 137.283,239.423 151.394,239.423 
			151.394,242.964 133.618,242.964 		"/>
	</g>
	<g>
		<defs>
			<rect id="SVGID_15_" x="-222" y="-367" width="1000" height="1000"/>
		</defs>
		<clipPath id="SVGID_16_">
			<use xlink:href="#SVGID_15_"  overflow="visible"/>
		</clipPath>
		<path clip-path="url(#SVGID_16_)" fill="#FFFFFF" d="M157.84,204.668c0.794,0,1.472,0.283,2.035,0.848
			c0.563,0.565,0.845,1.248,0.845,2.045c0,0.781-0.282,1.455-0.845,2.021c-0.563,0.563-1.241,0.847-2.035,0.847
			c-0.778,0-1.448-0.281-2.011-0.847s-0.844-1.238-0.844-2.021c0-0.797,0.281-1.479,0.844-2.045
			C156.392,204.951,157.062,204.668,157.84,204.668 M156.107,215.838h3.49v27.126h-3.49V215.838z"/>
	</g>
	<g>
		<defs>
			<rect id="SVGID_17_" x="-222" y="-367" width="1000" height="1000"/>
		</defs>
		<clipPath id="SVGID_18_">
			<use xlink:href="#SVGID_17_"  overflow="visible"/>
		</clipPath>
		<path clip-path="url(#SVGID_18_)" fill="#FFFFFF" d="M178.022,205.366v3.416c-1.28-0.55-2.377-0.823-3.291-0.823
			c-0.682,0-1.247,0.137-1.695,0.411c-0.449,0.274-0.732,0.591-0.848,0.948c-0.117,0.356-0.175,1.309-0.175,2.854l-0.003,3.665
			h5.663v3.017h-5.665l-0.02,24.109h-3.49v-24.109h-3.565v-3.017h3.565V211.6c0-1.944,0.178-3.332,0.536-4.164
			c0.357-0.83,0.964-1.5,1.82-2.008c0.856-0.506,1.891-0.76,3.104-0.76C175.088,204.668,176.442,204.9,178.022,205.366"/>
	</g>
	<g>
		<defs>
			<rect id="SVGID_19_" x="-222" y="-367" width="1000" height="1000"/>
		</defs>
		<clipPath id="SVGID_20_">
			<use xlink:href="#SVGID_19_"  overflow="visible"/>
		</clipPath>
		<path clip-path="url(#SVGID_20_)" fill="#FFFFFF" d="M205.722,233.963l2.942,1.546c-0.965,1.896-2.08,3.425-3.344,4.589
			c-1.265,1.162-2.687,2.047-4.267,2.654c-1.581,0.605-3.37,0.91-5.366,0.91c-4.425,0-7.885-1.45-10.381-4.352
			c-2.495-2.899-3.743-6.18-3.743-9.836c0-3.439,1.056-6.508,3.169-9.199c2.678-3.424,6.263-5.137,10.756-5.137
			c4.624,0,8.317,1.754,11.079,5.262c1.963,2.477,2.961,5.567,2.995,9.273h-24.409c0.066,3.15,1.073,5.733,3.02,7.749
			c1.947,2.015,4.352,3.021,7.215,3.021c1.381,0,2.724-0.239,4.031-0.719c1.306-0.479,2.417-1.119,3.332-1.912
			C203.667,237.018,204.657,235.734,205.722,233.963 M205.722,226.658c-0.466-1.861-1.144-3.35-2.035-4.463
			c-0.89-1.113-2.068-2.012-3.532-2.692c-1.465-0.683-3.004-1.022-4.618-1.022c-2.663,0-4.951,0.856-6.864,2.567
			c-1.399,1.247-2.456,3.117-3.171,5.61H205.722z"/>
	</g>
	<g>
		<defs>
			<rect id="SVGID_21_" x="-222" y="-367" width="1000" height="1000"/>
		</defs>
		<clipPath id="SVGID_22_">
			<use xlink:href="#SVGID_21_"  overflow="visible"/>
		</clipPath>
		<path clip-path="url(#SVGID_22_)" fill="#FFFFFF" d="M245.763,206.288l17.103,36.676h-3.958l-5.769-12.067H237.34l-5.713,12.067
			h-4.089l17.327-36.676H245.763z M245.3,214.081l-6.284,13.274h12.538L245.3,214.081z"/>
	</g>
	<g>
		<defs>
			<rect id="SVGID_23_" x="-222" y="-367" width="1000" height="1000"/>
		</defs>
		<clipPath id="SVGID_24_">
			<use xlink:href="#SVGID_23_"  overflow="visible"/>
		</clipPath>
		<path clip-path="url(#SVGID_24_)" fill="#FFFFFF" d="M266.656,215.838h3.565v3.964c1.063-1.563,2.186-2.729,3.366-3.503
			c1.18-0.771,2.41-1.158,3.69-1.158c0.964,0,1.995,0.308,3.091,0.922l-1.82,2.941c-0.73-0.314-1.346-0.474-1.844-0.474
			c-1.164,0-2.286,0.478-3.366,1.434c-1.081,0.956-1.903,2.438-2.469,4.45c-0.432,1.546-0.648,4.671-0.648,9.375v9.175h-3.565
			V215.838z"/>
	</g>
	<g>
		<defs>
			<rect id="SVGID_25_" x="-222" y="-367" width="1000" height="1000"/>
		</defs>
		<clipPath id="SVGID_26_">
			<use xlink:href="#SVGID_25_"  overflow="visible"/>
		</clipPath>
		<path clip-path="url(#SVGID_26_)" fill="#FFFFFF" d="M309.664,221.473l-2.768,1.721c-2.392-3.176-5.652-4.762-9.787-4.762
			c-3.305,0-6.047,1.063-8.23,3.188s-3.273,4.707-3.273,7.744c0,1.976,0.502,3.836,1.506,5.578c1.005,1.744,2.383,3.097,4.135,4.06
			c1.751,0.963,3.715,1.444,5.891,1.444c3.983,0,7.237-1.588,9.762-4.762l2.768,1.819c-1.297,1.952-3.038,3.468-5.225,4.543
			c-2.186,1.076-4.674,1.615-7.465,1.615c-4.289,0-7.848-1.363-10.674-4.089c-2.824-2.727-4.236-6.042-4.236-9.948
			c0-2.626,0.66-5.065,1.98-7.317c1.321-2.252,3.139-4.01,5.448-5.271c2.31-1.264,4.896-1.896,7.753-1.896
			c1.796,0,3.527,0.274,5.199,0.822c1.67,0.549,3.087,1.264,4.251,2.145C307.86,218.986,308.85,220.109,309.664,221.473"/>
	</g>
	<g>
		<defs>
			<rect id="SVGID_27_" x="-222" y="-367" width="1000" height="1000"/>
		</defs>
		<clipPath id="SVGID_28_">
			<use xlink:href="#SVGID_27_"  overflow="visible"/>
		</clipPath>
		<path clip-path="url(#SVGID_28_)" fill="#FFFFFF" d="M316.371,205.366h3.49v15.333c1.412-1.861,2.967-3.254,4.662-4.176
			c1.694-0.924,3.531-1.385,5.51-1.385c2.026,0,3.827,0.517,5.397,1.547c1.57,1.029,2.729,2.414,3.479,4.149
			c0.748,1.737,1.122,4.459,1.122,8.166v13.962h-3.49v-12.939c0-3.125-0.125-5.211-0.374-6.258
			c-0.433-1.795-1.219-3.146-2.356-4.052c-1.139-0.905-2.63-1.358-4.476-1.358c-2.11,0-4.001,0.699-5.672,2.095
			s-2.771,3.125-3.303,5.187c-0.333,1.329-0.499,3.789-0.499,7.379v9.948h-3.49V205.366L316.371,205.366z"/>
	</g>
	<g>
		<defs>
			<rect id="SVGID_29_" x="-222" y="-367" width="1000" height="1000"/>
		</defs>
		<clipPath id="SVGID_30_">
			<use xlink:href="#SVGID_29_"  overflow="visible"/>
		</clipPath>
		<path clip-path="url(#SVGID_30_)" fill="#FFFFFF" d="M374.536,215.838v27.126h-3.439v-4.662c-1.463,1.778-3.104,3.116-4.925,4.015
			c-1.818,0.896-3.811,1.347-5.971,1.347c-3.84,0-7.118-1.394-9.836-4.177s-4.076-6.172-4.076-10.16
			c0-3.905,1.371-7.246,4.114-10.021c2.741-2.775,6.041-4.164,9.896-4.164c2.228,0,4.242,0.475,6.046,1.422
			c1.803,0.946,3.387,2.367,4.75,4.264v-4.986h3.44V215.838z M360.587,218.505c-1.94,0-3.734,0.479-5.379,1.433
			c-1.644,0.955-2.951,2.297-3.923,4.022c-0.971,1.728-1.456,3.554-1.456,5.478c0,1.91,0.489,3.736,1.469,5.479
			c0.98,1.743,2.296,3.101,3.947,4.071c1.652,0.972,3.425,1.457,5.316,1.457c1.909,0,3.72-0.481,5.43-1.444s3.024-2.267,3.946-3.91
			s1.384-3.493,1.384-5.553c0-3.138-1.034-5.761-3.103-7.87C366.153,219.561,363.609,218.505,360.587,218.505"/>
	</g>
	<g>
		<defs>
			<rect id="SVGID_31_" x="-222" y="-367" width="1000" height="1000"/>
		</defs>
		<clipPath id="SVGID_32_">
			<use xlink:href="#SVGID_31_"  overflow="visible"/>
		</clipPath>
		<path clip-path="url(#SVGID_32_)" fill="#FFFFFF" d="M405.229,233.963l2.942,1.546c-0.966,1.896-2.079,3.425-3.345,4.589
			c-1.265,1.162-2.688,2.047-4.268,2.654c-1.581,0.605-3.368,0.91-5.364,0.91c-4.427,0-7.887-1.45-10.382-4.352
			c-2.495-2.899-3.742-6.18-3.742-9.836c0-3.439,1.055-6.508,3.168-9.199c2.678-3.424,6.264-5.137,10.756-5.137
			c4.625,0,8.318,1.754,11.079,5.262c1.964,2.477,2.961,5.567,2.995,9.273h-24.409c0.065,3.15,1.073,5.733,3.021,7.749
			c1.946,2.015,4.352,3.021,7.214,3.021c1.382,0,2.726-0.239,4.031-0.719c1.307-0.48,2.417-1.119,3.332-1.912
			C403.174,237.018,404.163,235.734,405.229,233.963 M405.229,226.658c-0.466-1.861-1.145-3.35-2.034-4.463
			c-0.891-1.113-2.068-2.012-3.531-2.692c-1.465-0.683-3.004-1.022-4.619-1.022c-2.662,0-4.95,0.856-6.864,2.567
			c-1.397,1.247-2.454,3.117-3.17,5.61H405.229z"/>
	</g>
	<g>
		<defs>
			<rect id="SVGID_33_" x="-222" y="-367" width="1000" height="1000"/>
		</defs>
		<clipPath id="SVGID_34_">
			<use xlink:href="#SVGID_33_"  overflow="visible"/>
		</clipPath>
		<path clip-path="url(#SVGID_34_)" fill="#FFFFFF" d="M428.416,215.141c4.179,0,7.643,1.512,10.39,4.536
			c2.497,2.761,3.745,6.025,3.745,9.8c0,3.789-1.317,7.102-3.959,9.936c-2.638,2.834-6.03,4.251-10.176,4.251
			c-4.163,0-7.564-1.417-10.203-4.251c-2.64-2.834-3.958-6.146-3.958-9.936c0-3.757,1.247-7.016,3.746-9.773
			C420.748,216.66,424.22,215.141,428.416,215.141 M428.403,218.555c-2.902,0-5.396,1.072-7.481,3.217
			c-2.085,2.146-3.128,4.737-3.128,7.779c0,1.961,0.478,3.789,1.427,5.484c0.951,1.695,2.234,3.005,3.854,3.927
			c1.618,0.923,3.393,1.384,5.329,1.384c1.934,0,3.711-0.461,5.329-1.384c1.616-0.922,2.901-2.229,3.854-3.927
			c0.95-1.695,1.426-3.523,1.426-5.484c0-3.042-1.047-5.635-3.141-7.779S431.288,218.555,428.403,218.555"/>
	</g>
	<g>
		<defs>
			<rect id="SVGID_35_" x="-222" y="-367" width="1000" height="1000"/>
		</defs>
		<clipPath id="SVGID_36_">
			<use xlink:href="#SVGID_35_"  overflow="visible"/>
		</clipPath>
		<rect x="448.486" y="205.366" clip-path="url(#SVGID_36_)" fill="#FFFFFF" width="3.488" height="37.598"/>
	</g>
	<g>
		<defs>
			<rect id="SVGID_37_" x="-222" y="-367" width="1000" height="1000"/>
		</defs>
		<clipPath id="SVGID_38_">
			<use xlink:href="#SVGID_37_"  overflow="visible"/>
		</clipPath>
		<path clip-path="url(#SVGID_38_)" fill="#FFFFFF" d="M472.071,215.141c4.18,0,7.643,1.512,10.39,4.536
			c2.498,2.761,3.746,6.025,3.746,9.8c0,3.789-1.319,7.102-3.959,9.936c-2.639,2.834-6.031,4.251-10.177,4.251
			c-4.163,0-7.563-1.417-10.202-4.251c-2.641-2.834-3.959-6.146-3.959-9.936c0-3.757,1.248-7.016,3.746-9.773
			C464.403,216.66,467.876,215.141,472.071,215.141 M472.059,218.555c-2.901,0-5.396,1.072-7.48,3.217
			c-2.084,2.146-3.127,4.737-3.127,7.779c0,1.961,0.476,3.789,1.426,5.484c0.951,1.695,2.235,3.005,3.854,3.927
			c1.617,0.923,3.394,1.384,5.328,1.384c1.936,0,3.712-0.461,5.329-1.384c1.618-0.922,2.901-2.229,3.854-3.927
			c0.95-1.695,1.427-3.523,1.427-5.484c0-3.042-1.047-5.635-3.141-7.779C477.435,219.628,474.944,218.555,472.059,218.555"/>
	</g>
	<g>
		<defs>
			<rect id="SVGID_39_" x="-222" y="-367" width="1000" height="1000"/>
		</defs>
		<clipPath id="SVGID_40_">
			<use xlink:href="#SVGID_39_"  overflow="visible"/>
		</clipPath>
		<path clip-path="url(#SVGID_40_)" fill="#FFFFFF" d="M516.052,215.838h3.49v21.616c0,3.806-0.333,6.59-0.997,8.353
			c-0.915,2.492-2.502,4.412-4.763,5.76c-2.261,1.346-4.979,2.02-8.152,2.02c-2.327,0-4.418-0.33-6.271-0.986
			c-1.854-0.66-3.36-1.543-4.524-2.651c-1.163-1.109-2.235-2.729-3.216-4.863h3.79c1.031,1.795,2.362,3.125,3.994,3.988
			c1.63,0.864,3.651,1.298,6.064,1.298c2.379,0,4.39-0.443,6.027-1.33c1.641-0.887,2.81-2.001,3.508-3.342
			c0.699-1.344,1.049-3.508,1.049-6.498v-1.396c-1.313,1.662-2.92,2.938-4.817,3.827c-1.896,0.89-3.909,1.334-6.038,1.334
			c-2.496,0-4.843-0.618-7.038-1.856c-2.197-1.238-3.895-2.904-5.092-4.998c-1.198-2.096-1.797-4.397-1.797-6.907
			c0-2.509,0.623-4.851,1.872-7.019c1.247-2.17,2.974-3.886,5.178-5.148c2.205-1.264,4.529-1.895,6.977-1.895
			c2.029,0,3.922,0.42,5.678,1.258c1.755,0.841,3.448,2.225,5.079,4.151L516.052,215.838L516.052,215.838z M505.755,218.505
			c-1.979,0-3.814,0.479-5.51,1.435c-1.696,0.955-3.026,2.276-3.989,3.965c-0.965,1.688-1.447,3.512-1.447,5.473
			c0,2.977,0.998,5.436,2.992,7.38c1.995,1.944,4.579,2.917,7.754,2.917c3.208,0,5.788-0.964,7.742-2.892
			c1.952-1.929,2.93-4.464,2.93-7.605c0-2.044-0.448-3.868-1.347-5.472c-0.896-1.604-2.169-2.872-3.814-3.803
			C509.42,218.971,507.649,218.505,505.755,218.505"/>
	</g>
	<g>
		<defs>
			<rect id="SVGID_41_" x="-222" y="-367" width="1000" height="1000"/>
		</defs>
		<clipPath id="SVGID_42_">
			<use xlink:href="#SVGID_41_"  overflow="visible"/>
		</clipPath>
		<polygon clip-path="url(#SVGID_42_)" fill="#FFFFFF" points="524.104,215.838 527.795,215.838 537.117,236.727 546.171,215.838 
			549.885,215.838 533.704,252.887 530.018,252.887 535.239,240.909 		"/>
	</g>
</g>
</svg>
