<?xml version="1.0" encoding="UTF-8"?>
<svg xml:space="preserve" xmlns="http://www.w3.org/2000/svg">
<symbol id="payment" enable-background="new 0 0 512.16 512.16" version="1.1" viewBox="0 0 512.16 512.16">
<g transform="translate(1 1)">
			<path d="m272.07 336.15h136.53c5.12 0 8.533-3.413 8.533-8.533v-76.8c0-5.12-3.413-8.533-8.533-8.533h-136.53c-5.12 0-8.533 3.413-8.533 8.533v76.8c-1e-3 5.119 3.413 8.533 8.533 8.533zm8.533-76.8h119.47v59.733h-119.47v-59.733z"/>
			<path d="m41.667 225.21h68.267c5.12 0 8.533-3.413 8.533-8.533s-3.413-8.533-8.533-8.533h-68.267c-5.12 0-8.533 3.413-8.533 8.533s3.413 8.533 8.533 8.533z"/>
			<path d="m144.07 225.21h68.267c5.12 0 8.533-3.413 8.533-8.533s-3.413-8.533-8.533-8.533h-68.267c-5.12 0-8.533 3.413-8.533 8.533s3.413 8.533 8.533 8.533z"/>
			<path d="m41.667 259.35h110.93c5.12 0 8.533-3.413 8.533-8.533s-3.413-8.533-8.533-8.533h-110.93c-5.12 0-8.533 3.413-8.533 8.533s3.413 8.533 8.533 8.533z"/>
			<path d="m212.33 242.28h-25.6c-5.12 0-8.533 3.413-8.533 8.533s3.413 8.533 8.533 8.533h25.6c5.12 0 8.533-3.413 8.533-8.533s-3.413-8.533-8.533-8.533z"/>
			<path d="m503.32 136.47c-5.973-7.68-13.653-11.947-23.04-12.8l-20.48-2.482v-41.038c0-18.773-15.36-34.133-34.133-34.133h-392.53c-18.773-1e-3 -34.133 15.359-34.133 34.133v273.07c0 15.413 10.357 28.518 24.453 32.718-0.43 17.262 12.631 32.248 30.161 33.842l394.24 44.373h3.413c17.067 0 32.427-12.8 34.133-29.013l25.6-273.92c0.853-8.534-1.707-17.921-7.68-24.747zm-487.25-30.72h426.67v51.2h-426.67v-51.2zm17.066-42.667h392.53c9.387 0 17.067 7.68 17.067 17.067v8.533h-426.67v-8.533c0-9.387 7.68-17.067 17.066-17.067zm-17.066 290.13v-179.2h426.67v179.2c0 9.387-7.68 17.067-17.067 17.067h-392.53c-9.387 0-17.067-7.68-17.067-17.067zm477.87-195.41-25.6 273.92c-0.853 9.387-9.387 16.213-18.773 15.36l-393.39-44.373c-8.533-0.853-14.507-7.68-15.36-15.36h384.85c18.773 0 34.133-15.36 34.133-34.133v-215.89l19.627 1.707c4.267 0 8.533 2.56 11.093 5.973 2.561 3.413 4.268 8.533 3.414 12.8z"/>
</symbol>
</g></svg>
