<?xml version="1.0" encoding="utf-8"?>
<!-- Generator: Adobe Illustrator 16.0.0, SVG Export Plug-In . SVG Version: 6.00 Build 0)  -->
<!DOCTYPE svg PUBLIC "-//W3C//DTD SVG 1.1//EN" "http://www.w3.org/Graphics/SVG/1.1/DTD/svg11.dtd">
<svg version="1.1" id="Layer_1" xmlns="http://www.w3.org/2000/svg" xmlns:xlink="http://www.w3.org/1999/xlink" x="0px" y="0px"
	 width="426px" height="117px" viewBox="0 0 426 117" enable-background="new 0 0 426 117" xml:space="preserve">
<polygon fill="#004C82" points="33.181,31.38 33.666,31.38 34.476,31.538 35.443,31.7 38.028,32.348 41.58,32.991 43.521,33.479 
	45.62,33.964 47.881,34.286 50.143,34.932 52.565,35.254 54.988,35.9 62.742,37.354 65.166,38.001 67.75,38.484 70.01,38.969 
	72.434,39.454 74.693,39.939 76.955,40.263 78.894,40.748 80.833,41.069 82.451,41.553 83.902,41.878 85.194,42.038 86.324,42.2 
	87.134,42.362 87.619,42.522 87.939,42.522 90.04,43.007 91.979,43.331 93.596,43.815 94.886,44.139 96.179,44.623 97.148,44.946 
	98.439,45.594 98.923,45.917 99.733,46.723 99.733,46.885 99.896,47.047 99.896,47.205 106.839,47.205 107.487,47.368 
	108.133,47.368 108.617,47.531 109.101,47.531 109.584,47.693 110.879,48.336 111.039,48.662 112.17,50.439 112.494,52.537 
	112.17,55.121 111.363,57.546 110.394,59.968 109.422,61.907 108.617,63.199 108.295,63.685 107.971,63.847 107.163,64.168 
	106.033,64.652 104.417,65.298 102.639,65.943 100.38,66.915 97.954,67.883 95.208,68.851 92.139,70.146 88.909,71.276 
	85.681,72.566 78.573,75.478 74.855,76.932 71.14,78.222 67.426,79.834 63.551,81.292 59.834,82.582 56.28,84.199 52.565,85.49 
	49.173,86.78 42.711,89.369 39.805,90.496 37.058,91.468 34.636,92.436 32.537,93.244 30.759,94.053 29.307,94.539 28.175,95.025 
	27.529,95.18 27.365,95.343 110.879,95.343 124.446,31.054 33.181,31.054 "/>
<polygon fill="#004C82" points="95.695,52.216 95.208,52.378 91.979,53.021 91.171,53.021 90.524,53.184 89.881,53.184 
	88.909,53.347 88.425,53.508 88.103,53.668 87.939,53.993 87.939,54.316 88.264,54.638 88.909,54.638 89.555,54.799 91.171,54.799 
	92.138,54.638 93.107,54.638 95.371,54.316 96.502,54.316 97.794,54.152 98.923,53.993 99.896,53.831 101.024,53.668 
	105.385,53.668 105.869,53.831 106.195,53.993 106.515,54.478 106.515,55.121 106.354,55.768 106.195,56.577 105.869,57.546 
	105.385,58.678 105.063,59.81 104.9,60.453 105.223,60.778 105.549,60.614 106.195,59.968 106.515,59.484 107.002,58.678 
	107.486,57.709 107.97,56.577 108.453,55.609 108.778,54.638 108.938,53.831 108.938,52.863 108.617,52.053 108.133,51.569 
	107.486,51.085 106.677,50.762 105.708,50.601 104.579,50.439 97.794,50.439 97.632,50.601 97.47,50.601 97.148,50.762 
	96.823,51.409 96.502,51.569 96.178,51.893 "/>
<polygon fill="#004C82" points="30.112,45.917 19.451,95.343 19.938,95.18 20.905,94.539 22.522,93.889 24.622,92.758 
	27.043,91.628 29.791,90.178 33.021,88.724 36.09,87.106 39.32,85.648 42.389,84.036 45.458,82.582 48.364,81.129 50.789,79.834 
	52.888,78.867 54.504,78.058 55.635,77.576 57.251,76.769 58.704,75.96 60.481,75.151 62.257,74.184 63.872,73.375 65.812,72.566 
	67.588,71.599 69.526,70.794 71.466,69.818 81.156,65.784 85.519,64.33 86.164,64.168 86.809,63.847 87.618,63.685 90.525,62.716 
	93.916,61.744 95.049,61.582 98.44,60.613 100.38,60.293 101.025,60.131 101.508,59.968 101.995,59.968 102.479,59.81 
	102.802,59.483 102.965,59.483 102.965,59.321 102.639,58.678 102.156,58.516 101.508,58.353 100.863,58.353 99.897,58.193 
	98.923,58.193 97.794,58.353 95.855,58.516 93.755,58.836 91.494,59.321 89.07,59.81 86.65,60.453 84.065,61.262 81.64,62.067 
	79.057,62.876 76.635,63.847 74.209,64.652 71.949,65.461 69.851,66.27 67.909,67.238 66.295,67.883 64.841,68.532 63.711,69.177 
	57.573,50.114 96.664,50.114 96.823,49.309 96.179,48.499 95.208,48.015 93.755,47.531 92.139,47.047 87.94,46.399 81.156,45.917 
	"/>
<polygon fill="#EA4156" points="406.045,64.699 132.362,64.699 132.755,60.586 406.438,60.586 "/>
<path d="M144.799,55.608l-2.099-0.162l-2.101-0.484l-1.615-0.485l-1.454-0.969l-0.968-1.13l-0.646-1.456l-0.163-1.613l0.163-1.941
	l0.808-3.553l0.644-3.23l0.649-2.748l0.482-2.259l0.327-1.939l0.321-1.455l0.163-0.805l0.158-0.325h5.331l-0.162,0.646l-0.323,1.615
	l-0.647,2.423l-0.483,2.745l-0.648,2.748l-0.806,4.037l-0.163,0.484l-0.16,1.294v2.263l0.323,0.805l0.646,0.647l0.808,0.484
	l1.13,0.322l1.293,0.162l1.453-0.162l1.131-0.159l1.132-0.487l0.806-0.808l0.647-0.806l0.648-0.972l0.968-2.583l0.16-1.291
	l0.484-1.94l0.488-2.421l0.483-2.586l0.645-2.424l0.325-2.1l0.322-1.454l0.162-0.482h5.332l-0.972,4.684l-0.483,2.425l-0.323,0.806
	v0.322l-0.165,0.972l-0.483,2.42l-1.128,4.685l-0.162,0.968l-0.484,0.973l-0.326,0.805l-0.484,0.808l-0.645,0.808l-1.292,1.29
	l-0.81,0.488l-0.968,0.486l-0.807,0.483l-0.968,0.323l-0.97,0.163l-0.971,0.32l-2.259,0.325H144.799z M393.232,34.932h-7.594
	l-1.289,0.321l-0.97,0.647l-0.163,0.322l-0.161,0.486v0.645l0.161,0.648l0.483,0.647l0.485,0.807l1.454,1.452l0.968,0.647
	l0.809,0.647l0.97,0.808l1.615,1.614l0.647,0.808l0.967,1.938l0.164,0.968l-0.164,1.132l-0.319,1.131l-0.49,1.13l-0.805,0.969
	l-1.131,0.809l-1.29,0.644l-1.617,0.487l-2.099,0.324l-2.263,0.159h-8.238l0.971-3.876h8.722l0.809-0.16l0.646-0.163l0.485-0.322
	l0.486-0.646l0.319-0.646l-0.161-1.295l-0.969-1.291l-1.615-1.293l-1.614-1.453l-1.776-1.615l-1.456-1.777l-0.967-1.778
	l-0.161-2.099l0.322-1.129l0.648-1.293l0.646-0.969l1.128-0.808l1.456-0.645l1.453-0.483l1.938-0.326h9.369L393.232,34.932z
	 M374.492,34.932h-12.11l-1.457,6.3h10.663l-0.807,3.39H360.12l-1.294,6.623h12.114l-0.809,3.876h-17.443l5.169-24.067h17.446
	L374.492,34.932z M353.495,34.932h-7.428l-4.362,20.189h-5.331l4.361-20.189h-7.593l0.97-3.878h20.191L353.495,34.932z
	 M316.344,55.121l2.101-3.875h7.594L323.936,35.9l-10.66,19.221h-5.331l13.894-24.067h6.299l3.717,24.067H316.344z M315.376,34.932
	h-7.432l-4.362,20.189h-5.331l4.363-20.189h-7.592l0.968-3.878h20.192L315.376,34.932z M292.277,34.932h-7.432l-0.809,0.159
	l-0.645,0.162l-0.484,0.325l-0.648,0.644v1.13L282.424,38l0.32,0.647l0.648,0.807l1.453,1.453l0.807,0.647l0.972,0.646l2.422,2.423
	l0.646,0.807l0.644,0.969l0.327,0.969l0.16,0.968v1.132l-0.324,1.132l-0.483,1.129l-0.97,0.969l-0.968,0.809l-1.454,0.644
	l-1.616,0.487l-1.938,0.324l-2.424,0.159h-8.077l0.809-3.875h8.883l0.809-0.161l0.646-0.163l0.483-0.322l0.485-0.646l0.161-0.645
	l-0.161-1.295l-0.969-1.292l-1.455-1.292l-1.614-1.454l-1.777-1.614l-1.454-1.777l-0.968-1.778l-0.163-2.099l0.326-1.13l0.482-1.292
	l0.808-0.97l1.132-0.808l1.292-0.645l1.615-0.483l1.938-0.326h9.367L292.277,34.932z M243.494,43.007l-2.423,12.114h10.821
	l1.293-0.159h1.293l2.261-0.648l1.291-0.484l1.134-0.646l1.938-1.292l1.935-1.938l1.617-2.262l0.646-1.294l0.483-1.291l0.327-1.455
	l0.161-0.645l0.159-0.97l0.322-2.26l-0.159-2.098l-0.484-1.779l-0.811-1.614l-1.29-1.454l-1.616-0.969l-2.097-0.647l-2.427-0.162
	h-11.79L243.494,43.007z M261.1,43.007l-0.161,0.808l-0.483,0.969l-0.323,0.81l-0.32,0.968l-0.488,0.642l-0.643,0.81l-1.295,1.295
	l-1.615,0.968l-0.806,0.323l-0.971,0.321l-1.939,0.324h-4.846l1.616-8.238l1.777-8.075h6.944l1.29,0.484l0.974,0.646l0.805,0.969
	L261.1,38l0.322,1.29v2.587l-0.322,0.97V43.007z M241.396,34.932h-11.956l-1.451,6.3h10.498l-0.647,3.39H227.18l-1.293,6.623h11.952
	l-0.643,3.876H219.75l5.168-24.067h17.284L241.396,34.932z M220.556,34.932h-7.59l-4.363,20.189h-5.167l4.36-20.189h-7.59
	l0.805-3.878h20.191L220.556,34.932z M192.29,55.121h-5.17l5.007-24.067h5.33L192.29,55.121z M181.952,55.121h-6.623l-5.979-17.927
	h-0.16l-3.713,17.927h-4.684l5.167-24.067h6.783l5.816,18.092l3.715-18.092h4.846L181.952,55.121z"/>
<path d="M137.694,86.135h-0.649l-0.322-0.159h-0.971l-0.322-0.163h-0.322l-0.324-3.389h1.293l0.159,0.158h0.97l1.291-0.158
	l1.938-0.649l0.647-0.645l0.969-1.295l0.323-0.646v-0.646l0.162-0.809v-0.804l-0.162-0.649l-0.323-0.481l-0.969-0.648h-0.647
	l-0.643-0.159h-4.363l-4.361,20.188h-5.331l5.17-24.066h11.467l1.776,0.163l1.295,0.649l1.13,0.804l0.647,1.132l0.322,1.131
	l0.162,1.29v1.295l-0.162,1.132l-0.484,1.611l-0.81,1.454l-0.969,1.291l-1.289,1.135l-1.294,0.809l-3.232,0.967L137.694,86.135z
	 M403.57,74.992h-12.274l-1.295,6.3h10.663l-0.81,3.553h-10.659l-1.293,6.623h12.115l-0.809,3.712h-17.445l5.169-24.067h17.446
	L403.57,74.992z M382.088,75.314l-0.647-0.163h-0.485l-1.291-0.323l-0.809-0.159h-0.806l-0.647-0.163h-0.968l-1.778,0.163
	l-1.617,0.481l-1.614,0.649l-1.452,1.131l-1.131,1.127l-1.131,1.457l-0.646,1.776l-0.647,1.936l-0.325,1.939l0.163,1.776
	l0.481,1.454l0.648,1.131l0.969,0.968l1.292,0.809l1.454,0.484l1.618,0.16h0.967l0.97-0.16h0.808l1.614-0.321h0.646l0.809-0.163
	l0.647-0.159l-1.294,4.033l-0.646,0.164h-0.806l-0.648,0.163h-0.806l-0.646,0.158h-3.717l-2.584-0.322l-1.131-0.318l-1.132-0.485
	l-0.968-0.486l-0.97-0.646l-0.809-0.648l-0.807-0.809l-0.483-0.968l-0.483-1.131l-0.485-0.968l-0.161-1.29v-1.294l0.161-1.454
	l0.159-1.617l0.485-1.454l0.483-1.612l1.293-2.585l0.806-1.131l1.943-1.938l1.132-0.809l2.26-1.29l2.582-0.972l1.294-0.323
	l1.29-0.163l1.456-0.155h3.391l0.646,0.155h0.648l0.646,0.163h0.645l0.647,0.163L382.088,75.314z M355.435,95.18h-5.331l5.17-24.066
	h5.33L355.435,95.18z M338.312,95.18h-6.299l-3.556-24.066h5.33l2.425,19.384l10.661-19.384h5.168L338.312,95.18z M318.765,84.845
	l3.879,10.335h-5.816l-4.361-13.083h3.069l0.971-0.159l0.968-0.323l0.806-0.485l0.647-0.481l0.647-0.65l0.321-0.808l0.327-0.967
	l0.156-0.646v-0.646l-0.319-0.972l-0.323-0.322l-0.646-0.323l-1.617-0.322h-4.846l-4.364,20.188h-5.326l5.17-24.066h11.145
	l1.61,0.163l1.458,0.322l1.131,0.486l0.808,0.646l0.645,0.804l0.485,1.136l0.161,1.29v1.29l-0.161,1.617l-0.485,1.454l-0.645,1.294
	l-0.808,0.967l-0.972,0.968l-1.29,0.649l-1.131,0.481L318.765,84.845z M303.422,74.992h-12.115l-1.292,6.3h10.498l-0.646,3.553
	h-10.659l-1.294,6.623h12.114l-0.806,3.712h-17.607l5.168-24.067h17.445L303.422,74.992z M281.452,74.992h-6.784l-1.615,0.322
	l-0.646,0.163l-0.323,0.323l-0.485,0.321l-0.32,0.646v0.809l0.159,0.646l0.325,0.646l0.646,0.648l0.646,0.805l0.809,0.645
	l0.806,0.809l0.968,0.649l0.811,0.805l0.969,0.648l0.646,0.968l0.646,0.804l0.646,0.972l0.324,0.81l0.159,1.131v0.967l-0.322,1.295
	l-0.484,0.969l-1.939,1.938l-1.292,0.646l-1.778,0.485l-1.937,0.319h-10.5l0.809-3.712h8.886l0.806-0.163l0.648-0.323l0.484-0.322
	l0.483-0.481l0.32-0.649l-0.32-1.294l-0.968-1.29l-1.454-1.454l-1.618-1.454l-1.776-1.455l-1.454-1.774l-0.968-1.939l-0.163-1.936
	l0.324-1.295l0.485-1.131l0.806-0.972l1.132-0.805l1.29-0.645l1.617-0.486l1.939-0.323l2.259-0.163h7.107L281.452,74.992z
	 M252.699,95.18h-16.314l5.011-24.066h5.49l-4.361,20.355h10.983L252.699,95.18z M218.136,95.18l2.099-3.711h7.591l-2.261-15.509
	l-10.499,19.22h-5.332l13.732-24.066h6.457l3.716,24.066H218.136z M217.166,74.992h-7.592l-4.365,20.188h-5.33l4.364-20.188h-7.432
	l0.81-3.879h20.188L217.166,74.992z M194.067,74.992h-6.787l-1.616,0.322l-0.484,0.163l-0.485,0.323l-0.643,0.646l-0.162,0.322
	v0.809l0.162,0.646l0.969,1.294l0.643,0.805l0.809,0.645l0.807,0.809l0.97,0.649l0.97,0.805l0.806,0.648l0.647,0.968l0.808,0.804
	l0.483,0.972l0.325,0.81l0.321,1.131l-0.16,0.967l-0.324,1.295l-0.485,0.969l-0.806,0.966l-0.971,0.973l-1.453,0.644l-1.776,0.487
	l-1.94,0.317h-10.337l0.647-3.71h9.046l0.644-0.164l1.294-0.645l0.322-0.481l0.324-0.65l-0.162-1.293l-0.969-1.291l-1.452-1.454
	l-1.778-1.453l-1.616-1.455l-1.454-1.775l-0.968-1.939l-0.326-1.936l0.326-1.295l0.644-1.13l0.809-0.972l0.97-0.805l1.293-0.645
	l1.775-0.486l1.937-0.323l2.099-0.163h7.109L194.067,74.992z M149.162,83.228l-0.326,2.584l0.488,3.394l0.969,1.939l0.644,0.968
	l1.455,1.454l0.968,0.646l0.97,0.485l1.13,0.482l1.292,0.326l1.292,0.16h2.748l2.582-0.324l1.291-0.318l1.294-0.485l1.131-0.486
	l0.969-0.645l1.131-0.649l0.97-0.808l0.805-0.969l0.971-0.967l0.644-1.132l1.293-2.584l0.485-1.454l0.322-1.617l0.325-1.29v-2.422
	l-0.163-1.294l-0.162-1.131l-0.97-1.939l-1.289-1.617l-0.809-0.642l-0.969-0.648l-0.97-0.481l-1.292-0.486l-1.132-0.327
	l-1.291-0.155h-2.746l-2.584,0.318l-1.291,0.323l-1.294,0.49l-1.131,0.481l-0.968,0.646l-1.131,0.809l-0.968,0.645l-0.969,0.972
	l-0.808,1.131l-0.808,0.968l-0.646,1.29l-0.485,1.294l-0.484,1.613L149.162,83.228z M169.351,83.228l-0.484,1.939l-0.807,1.776
	l-0.81,1.455l-1.127,1.13l-1.294,0.968l-1.455,0.809l-1.452,0.486l-1.778,0.159l-1.777-0.159l-1.292-0.646l-1.131-0.809
	l-0.807-1.131l-0.486-1.131l-0.321-1.613v-1.617l0.321-1.616l0.486-1.936l0.807-1.776l0.807-1.458l1.131-1.126l1.291-1.132
	l1.454-0.648l1.453-0.482l1.78-0.163l1.617,0.322l1.453,0.323l1.131,0.971l0.806,0.968l0.485,1.295l0.323,1.45v1.616L169.351,83.228
	z"/>
</svg>
